<svg viewBox="0 0 30 30" xmlns="http://www.w3.org/2000/svg">
	<g>
		<circle cx="15" cy="15" r="15" fill="#A6A6A6"/>
		<path d="M12.44 17.41C13.94 16.11 15.08 14.98 15.86 14.02C16.64 13.04 17.15 12.2 17.39 11.5C17.65 10.78 17.78 10.05 17.78 9.31C17.78 8.19 17.48 7.35 16.88 6.79C16.28 6.21 15.48 5.92 14.48 5.92C13.7 5.92 13.08 6.14 12.62 6.58C12.16 7 11.93 7.56 11.93 8.26C11.93 9 12.03 9.55 12.23 9.91C12.43 10.25 12.53 10.45 12.53 10.51C12.53 10.71 12.37 10.81 12.05 10.81C11.27 10.81 10.63 10.56 10.13 10.06C9.63 9.56 9.38 8.91 9.38 8.11C9.38 7.39 9.62 6.75 10.1 6.19C10.6 5.61 11.28 5.16 12.14 4.84C13.02 4.52 14.01 4.36 15.11 4.36C16.75 4.36 18.12 4.79 19.22 5.65C20.34 6.49 20.9 7.65 20.9 9.13C20.9 11.01 19.63 13.19 17.09 15.67C16.35 16.37 15.82 16.91 15.5 17.29C15.18 17.67 14.95 18.11 14.81 18.61L14.69 19.15H14.15L12.44 17.41ZM14.33 25.39C14.01 25.39 13.65 25.18 13.25 24.76C12.87 24.34 12.68 23.96 12.68 23.62C12.68 23.24 12.87 22.85 13.25 22.45C13.63 22.03 13.99 21.82 14.33 21.82C14.67 21.82 15.04 22.03 15.44 22.45C15.84 22.87 16.04 23.26 16.04 23.62C16.04 23.96 15.84 24.34 15.44 24.76C15.04 25.18 14.67 25.39 14.33 25.39Z" fill="white"/>
	</g>
</svg>
