<svg viewBox="0 0 150 100" xmlns="http://www.w3.org/2000/svg">
	<defs>
		<style>
			:root {
				--dark_blue: #003399;
				--blue: #5a6fd4;
				--light_blue: #ccd6eb;
				--green: #009900;
				--light_green: #cfecc5;
				--red: #ff0000;
				--light_red: #ffaaa7;
				--orange: #ff7f00;
			}
		</style>
		<!-- Hash Marks -->
		<path id="svg010_one_hash_mark" d="M 0 -3 L 0 3" stroke="var(--dark_blue)"/>
		<path id="svg010_two_hash_marks" d="M 0 0 M -1 -3 L -1 3 M 1 -3 L 1 3" stroke="var(--red)"/>
		<!-- EN Text -->
		<g id="svg010_text_en" lang="en" text-anchor="middle" font-size="8" font-family="Arbutus Slab">
			<text x="110" y="15" fill="var(--dark_blue)">Reulaux Triangle</text>
			<text x="110" y="25" fill="var(--red)">Right Triangle</text>
			<text x="110" y="35" fill="var(--green)">Reulaux Triangle</text>
			<text x="108" y="65" text-anchor="start" fill="var(--green)">S=1</text>
			<text x="108" y="75" text-anchor="start" fill="var(--dark_blue)">S=?</text>
		</g>
		<!-- RU Text -->
		<g id="svg010_text_ru" lang="ru" text-anchor="middle" font-size="8" font-family="Gabriela">
			<text x="110" y="15" fill="var(--dark_blue)">Треугольник Рёло</text>
			<text x="110" y="25" fill="var(--red)">Треугольник</text>
			<text x="110" y="35" fill="var(--green)">Треугольник Рёло</text>
			<text x="108" y="65" text-anchor="start" fill="var(--green)">S=1</text>
			<text x="108" y="75" text-anchor="start" fill="var(--dark_blue)">S=?</text>
		</g>
		<!-- EO Text -->
		<g id="svg010_text_eo" lang="eo" text-anchor="middle" font-size="8" font-family="Arbutus Slab">
			<text x="108" y="14" font-size="7.5" fill="var(--dark_blue)">Triangulo de Reulaux</text>
			<text x="108" y="22" font-size="7.5" fill="var(--red)">Orta Triangulo</text>
			<text x="108" y="30" font-size="7.5" fill="var(--green)">Triangulo de Reulaux</text>
			<text x="108" y="65" text-anchor="start" fill="var(--green)">S=1</text>
			<text x="108" y="75" text-anchor="start" fill="var(--dark_blue)">S=?</text>
		</g>
	</defs>
	<!-- Main figures -->
	<g stroke-width="1.5" stroke-linecap="round" stroke-linejoin="round" fill="none">
		<path d="M 5 80 a 80 80 0 0 1 40 -69 a 80 80 0 0 1 40 69 a 80 80 0 0 1 -80 0 z" stroke="var(--dark_blue)" fill="var(--dark_blue)" fill-opacity="0.3"/>
		<path d="M 16 40 L 74 40 L 45 91 z" stroke="var(--red)"/>
		<path d="M 30.5 65.5 A 29 29 0 0 1 45 40 A 29 29 0 0 1 59.5 65.5 A 29 29 0 0 1 30.5 65.5 z" stroke="var(--green)" fill="var(--green)" fill-opacity="0.4"/>
	</g>
	<g stroke-width="1" stroke-linecap="round">
		<!-- Blue -->
		<use href="#svg010_one_hash_mark" transform="translate(7.7, 59.2) rotate(-75)"/>
		<use href="#svg010_one_hash_mark" transform="translate(28.4, 23.4) rotate(-45)"/>
		<use href="#svg010_one_hash_mark" transform="translate(82.3, 59.2) rotate(75)"/>
		<use href="#svg010_one_hash_mark" transform="translate(61.6, 23.4) rotate(45)"/>
		<use href="#svg010_one_hash_mark" transform="translate(24.3, 88.3) rotate(15)"/>
		<use href="#svg010_one_hash_mark" transform="translate(65.7, 88.3) rotate(-15)"/>
		<!-- Red -->
		<use href="#svg010_two_hash_marks" transform="translate(30.5, 40)"/>
		<use href="#svg010_two_hash_marks" transform="translate(59.5, 40)"/>
		<use href="#svg010_two_hash_marks" transform="translate(37.75, 78.25) rotate(60)"/>
		<use href="#svg010_two_hash_marks" transform="translate(23.25, 52.75) rotate(60)"/>
		<use href="#svg010_two_hash_marks" transform="translate(52.25, 78.25) rotate(-60)"/>
		<use href="#svg010_two_hash_marks" transform="translate(66.75, 52.75) rotate(-60)"/>
	</g>

	<!-- Text -->
	<use href="#svg010_text_en" class="lang_dependent_content" lang='EN' visibility="visible"/>
	<use href="#svg010_text_ru" class="lang_dependent_content" lang='RU' visibility="hidden"/>
	<use href="#svg010_text_eo" class="lang_dependent_content" lang='EO' visibility="hidden"/>
</svg>