<svg xmlns="http://www.w3.org/2000/svg" viewBox="0 0 200 200">
	<defs>
		<style>
			:root {
				--brown: #76450a;
			}
		</style>
		<path id="svg023_path_part_1" d="M 15 13 l 0 -43 a 12 12 0 0 1 12 -12 l 22 0 a 27 27 0 0 1 27 27 l 0 3 a 27 27 0 0 1 -27 27 l -19 0"/>
		<path id="svg023_path_part_2" d="M -15 -17 l 0 -32 a 27 27 0 0 1 27 -27 l 3 0 a 27 27 0 0 1 27 27 l 0 22 a 12 12 0 0 1 -12 12 l -1 0"/>
		<mask id="svg023_railway_mask_part_1" x="-200" y="-200" width="400" height="400">
			<rect x="-200" y="-200" width="400" height="400" fill="white" />
			<use href="#svg023_path_part_1" stroke="black" stroke-width="2" fill="none"/>
		</mask>
		<mask id="svg023_railway_ties_mask_part_1" x="-200" y="-200" width="400" height="400">
			<rect x="-200" y="-200" width="400" height="400" fill="white" />
			<path d="M 15 -31 l 0 -15" stroke="black" stroke-width="6" fill="none" />
			<path d="M 49 -15 a 27 27 0 0 1 27 27" stroke="black" stroke-width="4" fill="none" />
		</mask>
		<mask id="svg023_railway_mask_part_2" x="-200" y="-200" width="400" height="400">
			<rect x="-200" y="-200" width="400" height="400" fill="white" />
			<use href="#svg023_path_part_2" stroke="black" stroke-width="2" fill="none"/>
		</mask>
		<mask id="svg023_railway_ties_mask_part_2" x="-200" y="-200" width="400" height="400">
			<rect x="-200" y="-200" width="400" height="400" fill="white" />
			<path d="M 15 -15 l 34 0" stroke="black" stroke-width="6" fill="none" />
			<path d="M 37 -42 l 10 0" stroke="black" stroke-width="6" fill="none" />
		</mask>
		<g id="svg023_promenade_logo_part_1" fill="none">
			<use href="#svg023_path_part_1" stroke="var(--brown)" stroke-width="6" stroke-dasharray="1 2" stroke-dashoffset="1.8" mask="url(#svg023_railway_ties_mask_part_1)" />
			<use href="#svg023_path_part_1" stroke="black" stroke-width="4" mask="url(#svg023_railway_mask_part_1)" />
		</g>
		<g id="svg023_promenade_logo_part_2" fill="none">
			<use href="#svg023_path_part_2" stroke="var(--brown)" stroke-width="6" stroke-dasharray="1 2" stroke-dashoffset="1" mask="url(#svg023_railway_ties_mask_part_2)" />
			<use href="#svg023_path_part_2" stroke="black" stroke-width="4" mask="url(#svg023_railway_mask_part_2)" />
		</g>
	</defs>
	<g transform=" translate(100 100) rotate(45)">
		<use href="#svg023_promenade_logo_part_1" transform="rotate(270)"/>
		<use href="#svg023_promenade_logo_part_1" transform="rotate(180)"/>
		<use href="#svg023_promenade_logo_part_1" transform="rotate(90)"/>
		<use href="#svg023_promenade_logo_part_1" />
		<use href="#svg023_promenade_logo_part_2" />
		<use href="#svg023_promenade_logo_part_2" transform="rotate(90)"/>
		<use href="#svg023_promenade_logo_part_2" transform="rotate(180)"/>
		<use href="#svg023_promenade_logo_part_2" transform="rotate(270)"/>
	</g>
</svg>