<svg width="200mm" height="200mm" xmlns="http://www.w3.org/2000/svg" viewBox="0 0 200 200" id="023_animated_svg">
	<defs>
		<style>
			:root {
				--brown: #76450a;
				--tr_1_main: #FF8C00;
				--tr_1_fill: #FFFF00;
				--tr_2_main: #008000;
				--tr_2_fill: #33FF33;
				--tr_3_main: #FF0000;
				--tr_3_fill: #FF3333;
				--tr_4_main: #0000FF;
				--tr_4_fill: #3333FF;
				--wheels: #696969;
				--chimney: #000000;
			}
			@keyframes move_train {
				from {offset-distance: 0%;}
				to {offset-distance: 100%;}
			}
			#svg023a_train_1_1 {
				offset-path: path('M 0 0 m -15 0 m 0 -9 l 0 -40 a 27 27 0 0 1 27 -27 l 3 0 a 27 27 0 0 1 27 27 l 0 22 a 12 12 0 0 1 -12 12 l -60 0 a 12 12 0 0 1 -12 -12 l 0 -22 a 27 27 0 0 1 27 -27 l 3 0 a 27 27 0 0 1 27 27 l 0 49 l 0 49 a 27 27 0 0 1 -27 27 l -3 0 a 27 27 0 0 1 -27 -27 l 0 -22 a 12 12 0 0 1 12 -12 l 60 0 a 12 12 0 0 1 12 12 l 0 22 a 27 27 0 0 1 -27 27 l -3 0 a 27 27 0 0 1 -27 -27 l 0 -58');
				animation: move_train 30s infinite linear;
			}
			#svg023a_train_1_2 {
				offset-path: path('M 0 0 m -15 0 l 0 -49 a 27 27 0 0 1 27 -27 l 3 0 a 27 27 0 0 1 27 27 l 0 22 a 12 12 0 0 1 -12 12 l -60 0 a 12 12 0 0 1 -12 -12 l 0 -22 a 27 27 0 0 1 27 -27 l 3 0 a 27 27 0 0 1 27 27 l 0 49 l 0 49 a 27 27 0 0 1 -27 27 l -3 0 a 27 27 0 0 1 -27 -27 l 0 -22 a 12 12 0 0 1 12 -12 l 60 0 a 12 12 0 0 1 12 12 l 0 22 a 27 27 0 0 1 -27 27 l -3 0 a 27 27 0 0 1 -27 -27 l 0 -49');
				animation: move_train 30s infinite linear;
			}
			#svg023a_train_1_3 {
				offset-path: path('M 0 0 m -15 0 m 0 8 l 0 -57 a 27 27 0 0 1 27 -27 l 3 0 a 27 27 0 0 1 27 27 l 0 22 a 12 12 0 0 1 -12 12 l -60 0 a 12 12 0 0 1 -12 -12 l 0 -22 a 27 27 0 0 1 27 -27 l 3 0 a 27 27 0 0 1 27 27 l 0 49 l 0 49 a 27 27 0 0 1 -27 27 l -3 0 a 27 27 0 0 1 -27 -27 l 0 -22 a 12 12 0 0 1 12 -12 l 60 0 a 12 12 0 0 1 12 12 l 0 22 a 27 27 0 0 1 -27 27 l -3 0 a 27 27 0 0 1 -27 -27 l 0 -41');
				animation: move_train 30s infinite linear;
			}
			#svg023a_train_2_1 {
				offset-path: path('M 0 0 m 0 -15 m 9 0 l 40 0 a 27 27 0 0 1 27 27 l 0 3 a 27 27 0 0 1 -27 27 l -22 0 a 12 12 0 0 1 -12 -12 l 0 -60 a 12 12 0 0 1 12 -12 l 22 0 a 27 27 0 0 1 27 27 l 0 3 a 27 27 0 0 1 -27 27 l -49 0 l -49 0 a 27 27 0 0 1 -27 -27 l 0 -3 a 27 27 0 0 1 27 -27 l 22 0 a 12 12 0 0 1 12 12 l 0 60 a 12 12 0 0 1 -12 12 l -22 0 a 27 27 0 0 1 -27 -27 l 0 -3 a 27 27 0 0 1 27 -27 l 58 0');
				animation: move_train 30s infinite linear;
			}
			#svg023a_train_2_2 {
				offset-path: path('M 0 0 m 0 -15 l 49 0 a 27 27 0 0 1 27 27 l 0 3 a 27 27 0 0 1 -27 27 l -22 0 a 12 12 0 0 1 -12 -12 l 0 -60 a 12 12 0 0 1 12 -12 l 22 0 a 27 27 0 0 1 27 27 l 0 3 a 27 27 0 0 1 -27 27 l -49 0 l -49 0 a 27 27 0 0 1 -27 -27 l 0 -3 a 27 27 0 0 1 27 -27 l 22 0 a 12 12 0 0 1 12 12 l 0 60 a 12 12 0 0 1 -12 12 l -22 0 a 27 27 0 0 1 -27 -27 l 0 -3 a 27 27 0 0 1 27 -27 l 49 0');
				animation: move_train 30s infinite linear;
			}
			#svg023a_train_2_3 {
				offset-path: path('M 0 0 m 0 -15 m -8 0 l 57 0 a 27 27 0 0 1 27 27 l 0 3 a 27 27 0 0 1 -27 27 l -22 0 a 12 12 0 0 1 -12 -12 l 0 -60 a 12 12 0 0 1 12 -12 l 22 0 a 27 27 0 0 1 27 27 l 0 3 a 27 27 0 0 1 -27 27 l -49 0 l -49 0 a 27 27 0 0 1 -27 -27 l 0 -3 a 27 27 0 0 1 27 -27 l 22 0 a 12 12 0 0 1 12 12 l 0 60 a 12 12 0 0 1 -12 12 l -22 0 a 27 27 0 0 1 -27 -27 l 0 -3 a 27 27 0 0 1 27 -27 l 41 0');
				animation: move_train 30s infinite linear;
			}
			#svg023a_train_3_1 {
				offset-path: path('M 0 0 m 15 0 m 0 9 l 0 40 a 27 27 0 0 1 -27 27 l -3 0 a 27 27 0 0 1 -27 -27 l 0 -22 a 12 12 0 0 1 12 -12 l 60 0 a 12 12 0 0 1 12 12 l 0 22 a 27 27 0 0 1 -27 27 l -3 0 a 27 27 0 0 1 -27 -27 l 0 -49 l 0 -49 a 27 27 0 0 1 27 -27 l 3 0 a 27 27 0 0 1 27 27 l 0 22 a 12 12 0 0 1 -12 12 l -60 0 a 12 12 0 0 1 -12 -12 l 0 -22 a 27 27 0 0 1 27 -27 l 3 0 a 27 27 0 0 1 27 27 l 0 58');
				animation: move_train 30s infinite linear;
			}
			#svg023a_train_3_2 {
				offset-path: path('M 0 0 m 15 0 l 0 49 a 27 27 0 0 1 -27 27 l -3 0 a 27 27 0 0 1 -27 -27 l 0 -22 a 12 12 0 0 1 12 -12 l 60 0 a 12 12 0 0 1 12 12 l 0 22 a 27 27 0 0 1 -27 27 l -3 0 a 27 27 0 0 1 -27 -27 l 0 -49 l 0 -49 a 27 27 0 0 1 27 -27 l 3 0 a 27 27 0 0 1 27 27 l 0 22 a 12 12 0 0 1 -12 12 l -60 0 a 12 12 0 0 1 -12 -12 l 0 -22 a 27 27 0 0 1 27 -27 l 3 0 a 27 27 0 0 1 27 27 l 0 49');
				animation: move_train 30s infinite linear;
			}
			#svg023a_train_3_3 {
				offset-path: path('M 0 0 m 15 0 m 0 -8 l 0 57 a 27 27 0 0 1 -27 27 l -3 0 a 27 27 0 0 1 -27 -27 l 0 -22 a 12 12 0 0 1 12 -12 l 60 0 a 12 12 0 0 1 12 12 l 0 22 a 27 27 0 0 1 -27 27 l -3 0 a 27 27 0 0 1 -27 -27 l 0 -49 l 0 -49 a 27 27 0 0 1 27 -27 l 3 0 a 27 27 0 0 1 27 27 l 0 22 a 12 12 0 0 1 -12 12 l -60 0 a 12 12 0 0 1 -12 -12 l 0 -22 a 27 27 0 0 1 27 -27 l 3 0 a 27 27 0 0 1 27 27 l 0 41');
				animation: move_train 30s infinite linear;
			}
			#svg023a_train_4_1 {
				offset-path: path('M 0 0 m 0 15 m -9 0 l -40 0 a 27 27 0 0 1 -27 -27 l 0 -3 a 27 27 0 0 1 27 -27 l 22 0 a 12 12 0 0 1 12 12 l 0 60 a 12 12 0 0 1 -12 12 l -22 0 a 27 27 0 0 1 -27 -27 l 0 -3 a 27 27 0 0 1 27 -27 l 49 0 l 49 0 a 27 27 0 0 1 27 27 l 0 3 a 27 27 0 0 1 -27 27 l -22 0 a 12 12 0 0 1 -12 -12 l 0 -60 a 12 12 0 0 1 12 -12 l 22 0 a 27 27 0 0 1 27 27 l 0 3 a 27 27 0 0 1 -27 27 l -58 0');
				animation: move_train 30s infinite linear;
			}
			#svg023a_train_4_2 {
				offset-path: path('M 0 0 m 0 15 l -49 0 a 27 27 0 0 1 -27 -27 l 0 -3 a 27 27 0 0 1 27 -27 l 22 0 a 12 12 0 0 1 12 12 l 0 60 a 12 12 0 0 1 -12 12 l -22 0 a 27 27 0 0 1 -27 -27 l 0 -3 a 27 27 0 0 1 27 -27 l 49 0 l 49 0 a 27 27 0 0 1 27 27 l 0 3 a 27 27 0 0 1 -27 27 l -22 0 a 12 12 0 0 1 -12 -12 l 0 -60 a 12 12 0 0 1 12 -12 l 22 0 a 27 27 0 0 1 27 27 l 0 3 a 27 27 0 0 1 -27 27 l -49 0');
				animation: move_train 30s infinite linear;
			}
			#svg023a_train_4_3 {
				offset-path: path('M 0 0 m 0 15 m 8 0 l -57 0 a 27 27 0 0 1 -27 -27 l 0 -3 a 27 27 0 0 1 27 -27 l 22 0 a 12 12 0 0 1 12 12 l 0 60 a 12 12 0 0 1 -12 12 l -22 0 a 27 27 0 0 1 -27 -27 l 0 -3 a 27 27 0 0 1 27 -27 l 49 0 l 49 0 a 27 27 0 0 1 27 27 l 0 3 a 27 27 0 0 1 -27 27 l -22 0 a 12 12 0 0 1 -12 -12 l 0 -60 a 12 12 0 0 1 12 -12 l 22 0 a 27 27 0 0 1 27 27 l 0 3 a 27 27 0 0 1 -27 27 l -41 0');
				animation: move_train 30s infinite linear;
			}

		</style>
		<path id="svg023a_path_part_1" d="M 15 13 l 0 -43 a 12 12 0 0 1 12 -12 l 22 0 a 27 27 0 0 1 27 27 l 0 3 a 27 27 0 0 1 -27 27 l -19 0"/>
		<path id="svg023a_path_part_2" d="M -15 -17 l 0 -32 a 27 27 0 0 1 27 -27 l 3 0 a 27 27 0 0 1 27 27 l 0 22 a 12 12 0 0 1 -12 12 l -1 0"/>
		<mask id="svg023a_railway_mask_part_1" x="-200" y="-200" width="400" height="400">
			<rect x="-200" y="-200" width="400" height="400" fill="white" />
			<use href="#svg023a_path_part_1" stroke="black" stroke-width="2" fill="none"/>
		</mask>
		<mask id="svg023a_railway_ties_mask_part_1" x="-200" y="-200" width="400" height="400">
			<rect x="-200" y="-200" width="400" height="400" fill="white" />
			<path d="M 15 -31 l 0 -15" stroke="black" stroke-width="6" fill="none" />
			<path d="M 49 -15 a 27 27 0 0 1 27 27" stroke="black" stroke-width="4" fill="none" />
		</mask>
		<mask id="svg023a_railway_mask_part_2" x="-200" y="-200" width="400" height="400">
			<rect x="-200" y="-200" width="400" height="400" fill="white" />
			<use href="#svg023a_path_part_2" stroke="black" stroke-width="2" fill="none"/>
		</mask>
		<mask id="svg023a_railway_ties_mask_part_2" x="-200" y="-200" width="400" height="400">
			<rect x="-200" y="-200" width="400" height="400" fill="white" />
			<path d="M 15 -15 l 34 0" stroke="black" stroke-width="6" fill="none" />
			<path d="M 37 -42 l 10 0" stroke="black" stroke-width="6" fill="none" />
		</mask>
		<g id="svg023a_promenade_logo_part_1" fill="none">
			<use href="#svg023a_path_part_1" stroke="var(--brown)" stroke-width="6" stroke-dasharray="1 2" stroke-dashoffset="1.8" mask="url(#svg023a_railway_ties_mask_part_1)" />
			<use href="#svg023a_path_part_1" stroke="black" stroke-width="4" mask="url(#svg023a_railway_mask_part_1)" />
		</g>
		<g id="svg023a_promenade_logo_part_2" fill="none">
			<use href="#svg023a_path_part_2" stroke="var(--brown)" stroke-width="6" stroke-dasharray="1 2" stroke-dashoffset="1" mask="url(#svg023a_railway_ties_mask_part_2)" />
			<use href="#svg023a_path_part_2" stroke="black" stroke-width="4" mask="url(#svg023a_railway_mask_part_2)" />
		</g>
	</defs>
	<g transform=" translate(100 100) rotate(45)">
		<use href="#svg023a_promenade_logo_part_1" transform="rotate(270)"/>
		<use href="#svg023a_promenade_logo_part_1" transform="rotate(180)"/>
		<use href="#svg023a_promenade_logo_part_1" transform="rotate(90)"/>
		<use href="#svg023a_promenade_logo_part_1" />
		<use href="#svg023a_promenade_logo_part_2" />
		<use href="#svg023a_promenade_logo_part_2" transform="rotate(90)"/>
		<use href="#svg023a_promenade_logo_part_2" transform="rotate(180)"/>
		<use href="#svg023a_promenade_logo_part_2" transform="rotate(270)"/>
		<!--Train 1-->
		<g id="svg023a_train_1_3">
			<path d="M 0 0 m 0 -2 l -3 0 l 0 4 l 6 0 l 0 -4 z" stroke="var(--tr_1_main)" fill="var(--tr_1_fill)" />
		</g>
		<g id="svg023a_train_1_2">
			<path d="M 0 0 m 0 -2 l -3 0 l 0 4 l 6 0 l 0 -4 z" stroke="var(--tr_1_main)" fill="var(--tr_1_fill)" />
		</g>
		<g id="svg023a_train_1_1">
			<path d="M 0 0 m 0.5 -1.5 l 1.5 0 m 0.5 0 l 1.5 0 m 0 3 l -1.5 0 m -0.5 0 l -1.5 0" stroke-width="1" stroke="var(--wheels)" />
			<path d="M 0 0 m 0 -1 l 4 0 l 0 2 l -4 0 l 0 -2 z" stroke="var(--tr_1_main)" stroke-width="0.7" fill="var(--tr_1_fill"/>
			<path d="M 0 0 m 0 -2 l 0 4 l -4 0 l 0 -4 z" stroke="var(--tr_1_main)" stroke-width="0.7" fill="var(--tr_1_fill)" />
			<circle cx="3" cy="0" r="0.7" fill="var(--chimney)" />
		</g>
		<!--Train 2-->
		<g id="svg023a_train_2_3">
			<path d="M 0 0 m 0 -2 l -3 0 l 0 4 l 6 0 l 0 -4 z" stroke="var(--tr_2_main)" fill="var(--tr_2_fill)" />
		</g>
		<g id="svg023a_train_2_2">
			<path d="M 0 0 m 0 -2 l -3 0 l 0 4 l 6 0 l 0 -4 z" stroke="var(--tr_2_main)" fill="var(--tr_2_fill)" />
		</g>
		<g id="svg023a_train_2_1">
			<path d="M 0 0 m 0.5 -1.5 l 1.5 0 m 0.5 0 l 1.5 0 m 0 3 l -1.5 0 m -0.5 0 l -1.5 0" stroke-width="1" stroke="var(--wheels)" />
			<path d="M 0 0 m 0 -1 l 4 0 l 0 2 l -4 0 l 0 -2 z" stroke="var(--tr_2_main)" stroke-width="0.7" fill="var(--tr_2_fill"/>
			<path d="M 0 0 m 0 -2 l 0 4 l -4 0 l 0 -4 z" stroke="var(--tr_2_main)" stroke-width="0.7" fill="var(--tr_2_fill)" />
			<circle cx="3" cy="0" r="0.7" fill="var(--chimney)" />
		</g>
		<!--Train 3-->
		<g id="svg023a_train_3_3">
			<path d="M 0 0 m 0 -2 l -3 0 l 0 4 l 6 0 l 0 -4 z" stroke="var(--tr_3_main)" fill="var(--tr_3_fill)" />
		</g>
		<g id="svg023a_train_3_2">
			<path d="M 0 0 m 0 -2 l -3 0 l 0 4 l 6 0 l 0 -4 z" stroke="var(--tr_3_main)" fill="var(--tr_3_fill)" />
		</g>
		<g id="svg023a_train_3_1">
			<path d="M 0 0 m 0.5 -1.5 l 1.5 0 m 0.5 0 l 1.5 0 m 0 3 l -1.5 0 m -0.5 0 l -1.5 0" stroke-width="1" stroke="var(--wheels)" />
			<path d="M 0 0 m 0 -1 l 4 0 l 0 2 l -4 0 l 0 -2 z" stroke="var(--tr_3_main)" stroke-width="0.7" fill="var(--tr_3_fill"/>
			<path d="M 0 0 m 0 -2 l 0 4 l -4 0 l 0 -4 z" stroke="var(--tr_3_main)" stroke-width="0.7" fill="var(--tr_3_fill)" />
			<circle cx="3" cy="0" r="0.7" fill="var(--chimney)" />
		</g>
		<!--Train 4-->
		<g id="svg023a_train_4_3">
			<path d="M 0 0 m 0 -2 l -3 0 l 0 4 l 6 0 l 0 -4 z" stroke="var(--tr_4_main)" fill="var(--tr_4_fill)" />
		</g>
		<g id="svg023a_train_4_2">
			<path d="M 0 0 m 0 -2 l -3 0 l 0 4 l 6 0 l 0 -4 z" stroke="var(--tr_4_main)" fill="var(--tr_4_fill)" />
		</g>
		<g id="svg023a_train_4_1">
			<path d="M 0 0 m 0.5 -1.5 l 1.5 0 m 0.5 0 l 1.5 0 m 0 3 l -1.5 0 m -0.5 0 l -1.5 0" stroke-width="1" stroke="var(--wheels)" />
			<path d="M 0 0 m 0 -1 l 4 0 l 0 2 l -4 0 l 0 -2 z" stroke="var(--tr_4_main)" stroke-width="0.7" fill="var(--tr_4_fill"/>
			<path d="M 0 0 m 0 -2 l 0 4 l -4 0 l 0 -4 z" stroke="var(--tr_4_main)" stroke-width="0.7" fill="var(--tr_4_fill)" />
			<circle cx="3" cy="0" r="0.7" fill="var(--chimney)" />
		</g>
	</g>
</svg>